<svg xmlns="http://www.w3.org/2000/svg" width="168" height="102" viewBox="0 0 168 102" version="1.1"><path d="M 17 1.655 C 14.525 2.513, 11.938 3.671, 11.250 4.230 C 9.855 5.363, 9.543 10.599, 10.824 11.391 C 11.277 11.671, 14.539 10.988, 18.074 9.873 C 30.588 5.926, 38 9.185, 38 18.635 L 38 23.159 34.906 22.479 C 30.137 21.432, 20.833 21.700, 17.500 22.980 C 6.034 27.386, 3.364 41.478, 12.397 49.917 C 17.353 54.547, 29.532 53.789, 35.869 48.457 L 38.687 46.086 40.873 49.043 C 43.507 52.605, 45.036 52.733, 48.579 49.686 C 51.045 47.565, 51.155 47.169, 49.902 44.936 C 48.979 43.290, 48.366 37.309, 48.014 26.500 C 47.407 7.911, 46.161 4.482, 38.961 1.601 C 33.881 -0.431, 22.943 -0.404, 17 1.655 M 133.271 1.964 C 123.604 6.352, 121.952 19.923, 130.334 26.094 C 131.525 26.971, 136.230 28.927, 140.789 30.440 C 149.636 33.375, 152.384 35.817, 151.339 39.812 C 150.072 44.655, 139.963 46.520, 131.500 43.471 C 125.365 41.261, 124 41.526, 124 44.929 C 124 50.491, 129.391 52.985, 141.434 52.994 C 152.640 53.003, 159.130 48.791, 161.054 40.259 C 162.880 32.163, 158.276 26.335, 147.030 22.510 C 137.189 19.163, 135 17.633, 135 14.099 C 135 12.529, 135.675 10.684, 136.501 10 C 139.041 7.892, 146.501 7.607, 152.007 9.407 C 154.798 10.320, 157.513 10.801, 158.041 10.475 C 159.403 9.633, 159.229 5.669, 157.750 3.819 C 154.481 -0.269, 140.521 -1.327, 133.271 1.964 M 53 3.034 C 53 5.690, 65.982 49.121, 67.262 50.750 C 67.803 51.437, 70.226 52, 72.647 52 C 77.975 52, 77.440 53.146, 82.612 30.646 L 86.485 13.793 90.561 30.646 C 96.145 53.735, 95.342 52, 100.445 52 C 102.820 52, 105.253 51.400, 105.863 50.665 C 107.042 49.245, 121 4.720, 121 2.381 C 121 0.661, 112.465 0.439, 111.418 2.132 C 111.033 2.755, 108.580 11.417, 105.967 21.382 C 103.354 31.347, 100.974 38.825, 100.679 38 C 100.383 37.175, 98.454 29.075, 96.391 20 C 94.329 10.925, 92.217 2.938, 91.698 2.250 C 90.674 0.892, 84.226 0.569, 82.322 1.780 C 81.674 2.192, 79.183 10.946, 76.785 21.233 L 72.426 39.937 68.076 22.218 C 65.683 12.473, 63.321 3.712, 62.827 2.750 C 62.175 1.479, 60.708 1, 57.465 1 C 53.641 1, 53 1.292, 53 3.034 M 22.020 30.284 C 14.531 34.073, 16.900 45, 25.210 45 C 32.253 45, 38 39.687, 38 33.175 C 38 30.699, 37.520 30.154, 34.875 29.625 C 29.976 28.645, 24.727 28.915, 22.020 30.284" stroke="none" fill="#040404" fill-rule="evenodd"/><path d="M 148.344 63.983 C 142.813 65.155, 136 68.703, 136 70.413 C 136 71.520, 137.982 71.683, 146.295 71.259 C 155.120 70.809, 156.834 70.977, 158.296 72.439 C 160.238 74.381, 160.072 75.623, 156.309 87.313 C 154.925 91.611, 154.087 95.420, 154.445 95.778 C 156.549 97.882, 164.267 87.477, 166.427 79.624 C 169.271 69.283, 169.313 67.251, 166.718 65.551 C 163.809 63.645, 153.922 62.802, 148.344 63.983 M 1 69.221 C 1 73.456, 19.308 85.828, 35.461 92.509 C 68.175 106.041, 108.346 104.786, 139.419 89.261 C 150.348 83.801, 154.141 80.985, 153.798 78.585 C 153.403 75.822, 151.734 76.028, 139.144 80.391 C 120.414 86.882, 109.516 88.506, 85 88.458 C 66.527 88.421, 62.022 88.097, 53 86.151 C 35.932 82.470, 19.845 76.528, 1.750 67.219 C 1.337 67.007, 1 67.908, 1 69.221" stroke="none" fill="#fb942b" fill-rule="evenodd"/></svg>